grf_filtered
version=1
nRows=21
nColumns=28
inDegrees=no
endheader
time	ground_force_r_vx	ground_force_r_vy	ground_force_r_vz	ground_force_r_px	ground_force_r_py	ground_force_r_pz	ground_torque_r_x	ground_torque_r_y	ground_torque_r_z	ground_force_l_vx	ground_force_l_vy	ground_force_l_vz	ground_force_l_px	ground_force_l_py	ground_force_l_pz	ground_torque_l_x	ground_torque_l_y	ground_torque_l_z	pelvis_force_vx	pelvis_force_vy	pelvis_force_vz	pelvis_force_px	pelvis_force_py	pelvis_force_pz	pelvis_torque_x	pelvis_torque_y	pelvis_torque_z
0.9866666666666668	7.105784746835443	33.888138	-1.9661640210970468	0.24166049183544291	0.0	0.09179216290295322	-4.314978	0.998589	-1.502662	1.803586746835443	42.430675	-18.920332021097046	0.315199269835443	0.0	-0.2603478090970466	5.168443	4.63344	-2.229128	0	0.0	0	0	0	0	0	0	0
0.9883333333333333	4.676195746835443	33.886406	-0.7221080210970472	0.2453880078354429	0.0	0.08083070390295344	-4.682205	1.117002	-1.41038	22.01962974683544	44.857064	-12.428428021097048	0.29961742183544293	0.0	-0.27148520109704766	4.988479	4.266828	-0.275786	0	0.0	0	0	0	0	0	0	0
0.9900000000000002	8.313624746835442	32.666896	-3.5018170210970467	0.24251319083544287	0.0	0.07595785690295376	-4.680762	0.994659	-1.227463	-0.30337125316455715	46.702113	-16.45184702109705	0.29755100483544294	0.0	-0.26775088909704703	5.352652	4.274361	3.93581	0	0.0	0	0	0	0	0	0	0
0.9916666666666667	6.191403746835443	35.107954	-1.6540830210970472	0.24054045983544292	0.0	0.07533277490295287	-5.046955	0.991147	-1.226922	17.41412774683544	49.744299	-15.120010021097048	0.29579268883544285	0.0	-0.26761312609704735	5.718642	4.518229	-1.313242	0	0.0	0	0	0	0	0	0	0
0.9933333333333332	8.325711746835443	36.331812	-1.676426021097047	0.23294183583544292	0.0	0.10544961290295252	-4.129541	0.756215	-1.503308	-2.426680253164557	52.195518	-15.508142021097047	0.29989383483544296	0.0	-0.2660590050970466	6.077934	4.893358	4.607034	0	0.0	0	0	0	0	0	0	0
0.9950000000000001	4.648954746835443	34.492534	-3.469490021097047	0.2375314038354429	0.0	0.062365593902953265	-5.411979	0.865571	-1.226568	16.196127746835444	55.238033	-15.101937021097047	0.295882303835443	0.0	-0.2692653940970473	6.261746	5.013884	0.273525	0	0.0	0	0	0	0	0	0	0
0.9966666666666666	5.554750746835444	35.10283	-4.394683021097047	0.24064807383544295	0.0	0.0807978569029526	-4.863585	0.992624	-1.044087	3.369958746835443	56.465509	-15.874138021097046	0.29044406483544294	0.0	-0.2619088210970473	6.811899	4.779022	4.119198	0	0.0	0	0	0	0	0	0	0
0.9983333333333335	4.332282746835443	36.321726	-4.384837021097047	0.23290428383544293	0.0	0.06535216890295281	-5.593905	0.741751	-1.226485	12.533192746835443	60.122815	-15.362426021097047	0.2889782038354429	0.0	-0.2602342070970476	7.359727	5.027083	1.494743	0	0.0	0	0	0	0	0	0	0
1.0	6.480115746835443	36.32676	-3.184675021097047	0.21927175883544292	0.0	0.06537616790295253	-5.588678	0.252935	-0.861026	1.8083757468354429	59.520764	-19.211414021097045	0.29457211183544296	0.0	-0.2526594850970474	7.724753	5.272609	-1.74015	0	0.0	0	0	0	0	0	0	0
1.0016666666666665	4.348014746835442	37.545241	-2.555727021097047	0.22268165383544292	0.0	0.08981093190295297	-4.857871	0.382441	-1.136578	4.260667746835443	61.349913	-18.321533021097046	0.28974494283544294	0.0	-0.26255069509704665	7.357876	5.15	2.532239	0	0.0	0	0	0	0	0	0	0
1.0033333333333334	5.261676746835443	38.767295	-2.566365021097047	0.21896599983544285	0.0	0.07502579990295377	-5.588951	0.253214	-1.044131	7.0014757468354425	63.792443	-18.960320021097047	0.2902278228354429	0.0	-0.2671839400970466	7.357706	5.389753	-2.77802	0	0.0	0	0	0	0	0	0	0
1.005	2.1945237468354426	39.370789	-4.063839021097047	0.2222189138354429	0.0	0.0773547049029526	-5.590805	0.375976	-1.501706	10.399139746835443	64.398184	-15.335195021097046	0.281711234835443	0.0	-0.2655350520970474	7.543942	4.907455	1.983211	0	0.0	0	0	0	0	0	0	0
1.0066666666666668	4.942079746835443	40.596018	-3.7868730210970467	0.20964895583544285	0.0	0.07720841090295227	-5.768401	-0.114875	-0.952871	12.212853746835444	63.788238	-16.881805021097048	0.28221802583544287	0.0	-0.2758140840970462	6.813668	4.895706	-2.411662	0	0.0	0	0	0	0	0	0	0
1.0083333333333333	3.107081746835443	39.371673	-4.377779021097047	0.22214531583544295	0.0	0.07738002390295318	-5.590121	0.375278	-1.043943	5.808353746835444	71.725812	-16.804138021097046	0.2844506488354429	0.0	-0.27249645509704745	7.902527	5.642991	0.884143	0	0.0	0	0	0	0	0	0	0
1.0100000000000002	3.438766746835443	41.207866	-1.3318800210970472	0.21870045483544287	0.0	0.07904005190295305	-5.772048	0.251458	-1.04386	2.465934746835443	66.232961	-15.245618021097048	0.28752418083544284	0.0	-0.255051540097047	8.453439	5.406823	3.142903	0	0.0	0	0	0	0	0	0	0
1.0116666666666667	2.190878746835443	41.81219	-4.067557021097047	0.212744470835443	0.0	0.06821431290295354	-6.319271	0.00234	-1.226529	1.226443746835443	69.286808	-17.060497021097046	0.2892754318354429	0.0	-0.2606732600970467	8.450805	5.770548	0.151878	0	0.0	0	0	0	0	0	0	0
1.0133333333333332	2.201862746835443	44.255936	-2.545468021097047	0.2156260798354429	0.0	0.08883138090295262	-5.771151	0.129672	-1.227153	8.290546746835442	72.331982	-13.168851021097048	0.27704157683544295	0.0	-0.26338980209704665	8.638717	5.165634	4.241824	0	0.0	0	0	0	0	0	0	0
1.0150000000000001	3.3998227468354427	41.812117	-5.299908021097047	0.21561421883544296	0.0	0.07265925690295294	-6.136661	0.125464	-0.768849	5.815419746835444	72.335657	-16.193322021097046	0.27709403083544293	0.0	-0.26831988109704774	8.274953	5.157398	-0.824264	0	0.0	0	0	0	0	0	0	0
1.0166666666666666	3.7274777468354428	42.426671	-2.8624730210970473	0.21550830083544292	0.0	0.07027139690295225	-6.320305	0.124266	-1.134788	12.278201746835443	72.938954	-11.381441021097046	0.279676203835443	0.0	-0.25948705409704687	9.002167	5.413875	4.302828	0	0.0	0	0	0	0	0	0	0
1.0183333333333335	3.7079097468354427	41.813037	-4.997673021097047	0.21254529683544288	0.0	0.05952623490295306	-6.685055	-0.001589	-0.95133	3.689190746835443	71.725549	-15.254643021097046	0.276147925835443	0.0	-0.2622587300970478	8.642029	5.040204	0.152571	0	0.0	0	0	0	0	0	0	0
1.02	2.206610746835443	43.035705	-2.2384480210970468	0.209786701835443	0.0	0.05962924990295271	-6.866435	-0.125968	-0.585037	13.477338746835443	70.498494	-13.227942021097046	0.28047118583544295	0.0	-0.2525023440970475	9.18901	5.289723	-0.701865	0	0.0	0	0	0	0	0	0	0
